<svg width="49" height="46" viewBox="0 0 49 46" fill="none" xmlns="http://www.w3.org/2000/svg">
<path fill-rule="evenodd" clip-rule="evenodd" d="M0 39.5028C0 43.0911 2.88096 46 6.4348 46H12.3007C21.7957 46 29.3889 42.3194 33.6497 36.0456C33.9605 35.588 34.664 35.6346 34.8846 36.1429L38.3554 44.6216C38.697 45.4559 39.5029 46 40.3969 46H46.5764C48.1771 46 49.2464 44.3347 48.5929 42.8592L35.4637 13.2118C35.463 13.2101 35.4608 13.2094 35.4591 13.2104C35.4575 13.2113 35.4554 13.2107 35.4546 13.2088C31.8031 4.9721 23.3365 0 12.3007 0H6.4348C2.88096 0 0 2.90889 0 6.4972V39.5028ZM11.78 37.26C10.4322 37.26 9.33943 36.1567 9.33943 34.7957V11.2043C9.33943 9.84326 10.4322 8.74001 11.78 8.74001C20.8266 8.74001 27.758 14.1943 27.758 23C27.758 31.8057 20.8266 37.26 11.78 37.26ZM38.3135 1.37737C38.6553 0.543658 39.4609 0 40.3546 0H46.5486C48.1497 0 49.219 1.66635 48.5646 3.14189L45.4481 10.1693L42.9292 15.8491C42.1534 17.5986 39.6977 17.6102 38.9057 15.8682L35.8725 9.19728C35.6161 8.63334 35.6039 7.98703 35.839 7.41368L38.3135 1.37737Z" fill="#121212"/>
</svg>
