<svg width="28" height="28" viewBox="0 0 28 28" fill="none" xmlns="http://www.w3.org/2000/svg">
<path d="M6.3 21.7L16.8 16.8L21.7 6.3L11.2 11.2L6.3 21.7ZM14 15.4C13.6033 15.4 13.2711 15.2656 13.0032 14.9968C12.7344 14.7289 12.6 14.3967 12.6 14C12.6 13.6033 12.7344 13.2706 13.0032 13.0018C13.2711 12.7339 13.6033 12.6 14 12.6C14.3967 12.6 14.7294 12.7339 14.9982 13.0018C15.2661 13.2706 15.4 13.6033 15.4 14C15.4 14.3967 15.2661 14.7289 14.9982 14.9968C14.7294 15.2656 14.3967 15.4 14 15.4ZM14 28C12.0633 28 10.2433 27.6323 8.54 26.8968C6.83667 26.1623 5.355 25.165 4.095 23.905C2.835 22.645 1.83773 21.1633 1.1032 19.46C0.367733 17.7567 0 15.9367 0 14C0 12.0633 0.367733 10.2433 1.1032 8.54C1.83773 6.83667 2.835 5.355 4.095 4.095C5.355 2.835 6.83667 1.83727 8.54 1.1018C10.2433 0.367267 12.0633 0 14 0C15.9367 0 17.7567 0.367267 19.46 1.1018C21.1633 1.83727 22.645 2.835 23.905 4.095C25.165 5.355 26.1623 6.83667 26.8968 8.54C27.6323 10.2433 28 12.0633 28 14C28 15.9367 27.6323 17.7567 26.8968 19.46C26.1623 21.1633 25.165 22.645 23.905 23.905C22.645 25.165 21.1633 26.1623 19.46 26.8968C17.7567 27.6323 15.9367 28 14 28Z" fill="#F8FAFF"/>
</svg>
