<svg width="28" height="28" viewBox="0 0 28 28" fill="none" xmlns="http://www.w3.org/2000/svg">
<path fill-rule="evenodd" clip-rule="evenodd" d="M14 0C6.26818 0 0 6.26818 0 14C0 21.7318 6.26818 28 14 28C21.7318 28 28 21.7318 28 14C28 6.26818 21.7318 0 14 0ZM15.2727 19.0909C15.2727 19.4285 15.1386 19.7522 14.9 19.9909C14.6613 20.2295 14.3375 20.3636 14 20.3636C13.6625 20.3636 13.3387 20.2295 13.1 19.9909C12.8614 19.7522 12.7273 19.4285 12.7273 19.0909V15.2727H8.90909C8.57154 15.2727 8.24782 15.1386 8.00914 14.9C7.77045 14.6613 7.63636 14.3375 7.63636 14C7.63636 13.6625 7.77045 13.3387 8.00914 13.1C8.24782 12.8614 8.57154 12.7273 8.90909 12.7273H12.7273V8.90909C12.7273 8.57154 12.8614 8.24782 13.1 8.00914C13.3387 7.77045 13.6625 7.63636 14 7.63636C14.3375 7.63636 14.6613 7.77045 14.9 8.00914C15.1386 8.24782 15.2727 8.57154 15.2727 8.90909V12.7273H19.0909C19.4285 12.7273 19.7522 12.8614 19.9909 13.1C20.2295 13.3387 20.3636 13.6625 20.3636 14C20.3636 14.3375 20.2295 14.6613 19.9909 14.9C19.7522 15.1386 19.4285 15.2727 19.0909 15.2727H15.2727V19.0909Z" fill="#F8FAFF"/>
</svg>
